<svg xmlns="http://www.w3.org/2000/svg" viewBox="0 0 30 23" shape-rendering="crispEdges" role="img" aria-label="Símbolo de GatoPago">
  <path fill="#0B0B0F" d="M3 0h4v1h-4zM23 0h4v1h-4zM2 1h1v1h-1zM7 1h2v1h-2zM21 1h2v1h-2zM27 1h1v1h-1zM2 2h1v1h-1zM9 2h1v1h-1zM20 2h1v1h-1zM27 2h1v1h-1zM2 3h1v1h-1zM10 3h1v1h-1zM19 3h1v1h-1zM27 3h1v1h-1zM2 4h1v1h-1zM11 4h8v1h-8zM27 4h1v1h-1zM2 5h1v1h-1zM27 5h1v1h-1zM2 6h1v1h-1zM27 6h1v1h-1zM2 7h1v1h-1zM27 7h1v1h-1zM2 8h1v1h-1zM27 8h1v1h-1zM3 9h1v1h-1zM26 9h1v1h-1zM3 10h1v1h-1zM26 10h1v1h-1zM2 11h1v1h-1zM27 11h1v1h-1zM2 12h1v1h-1zM8 12h2v1h-2zM20 12h2v1h-2zM27 12h1v1h-1zM2 13h1v1h-1zM8 13h2v1h-2zM20 13h2v1h-2zM27 13h1v1h-1zM0 14h5v1h-5zM8 14h2v1h-2zM20 14h2v1h-2zM25 14h5v1h-5zM2 15h1v1h-1zM27 15h1v1h-1zM2 16h3v1h-3zM25 16h3v1h-3zM1 17h3v1h-3zM11 17h1v1h-1zM14 17h2v1h-2zM18 17h1v1h-1zM26 17h3v1h-3zM4 18h1v1h-1zM12 18h2v1h-2zM16 18h2v1h-2zM25 18h1v1h-1zM5 19h1v1h-1zM24 19h1v1h-1zM6 20h1v1h-1zM23 20h1v1h-1zM7 21h2v1h-2zM21 21h2v1h-2zM9 22h12v1h-12z"/>
  <path fill="#F85239" d="M3 1h4v1h-4zM23 1h4v1h-4zM3 2h1v1h-1zM5 2h4v1h-4zM21 2h4v1h-4zM26 2h1v1h-1zM3 3h1v1h-1zM6 3h4v1h-4zM20 3h4v1h-4zM26 3h1v1h-1zM3 4h1v1h-1zM7 4h4v1h-4zM19 4h4v1h-4zM26 4h1v1h-1zM3 5h1v1h-1zM8 5h3v1h-3zM13 5h1v1h-1zM16 5h1v1h-1zM19 5h3v1h-3zM26 5h1v1h-1zM3 6h1v1h-1zM7 6h5v1h-5zM13 6h1v1h-1zM16 6h1v1h-1zM18 6h5v1h-5zM26 6h1v1h-1zM3 7h1v1h-1zM6 7h6v1h-6zM13 7h1v1h-1zM16 7h1v1h-1zM18 7h6v1h-6zM26 7h1v1h-1zM3 8h1v1h-1zM5 8h9v1h-9zM16 8h9v1h-9zM26 8h1v1h-1zM4 9h22v1h-22zM4 10h22v1h-22zM3 11h24v1h-24zM3 12h5v1h-5zM10 12h10v1h-10zM22 12h5v1h-5zM3 13h5v1h-5zM10 13h10v1h-10zM22 13h5v1h-5zM5 14h3v1h-3zM10 14h10v1h-10zM22 14h3v1h-3zM3 15h10v1h-10zM17 15h10v1h-10zM5 16h9v1h-9zM16 16h9v1h-9zM4 17h7v1h-7zM12 17h2v1h-2zM16 17h2v1h-2zM19 17h7v1h-7zM6 18h6v1h-6zM14 18h2v1h-2zM18 18h6v1h-6zM7 19h16v1h-16zM8 20h14v1h-14zM10 21h10v1h-10z"/>
  <path fill="#CF3433" d="M4 2h1v1h-1zM25 2h1v1h-1zM4 3h2v1h-2zM24 3h2v1h-2zM4 4h3v1h-3zM23 4h3v1h-3zM4 5h4v1h-4zM11 5h2v1h-2zM14 5h2v1h-2zM17 5h2v1h-2zM22 5h4v1h-4zM4 6h3v1h-3zM12 6h1v1h-1zM14 6h2v1h-2zM17 6h1v1h-1zM23 6h3v1h-3zM4 7h2v1h-2zM12 7h1v1h-1zM14 7h2v1h-2zM17 7h1v1h-1zM24 7h2v1h-2zM4 8h1v1h-1zM14 8h2v1h-2zM25 8h1v1h-1zM13 15h4v1h-4zM14 16h2v1h-2zM5 18h1v1h-1zM24 18h1v1h-1zM6 19h1v1h-1zM23 19h1v1h-1zM7 20h1v1h-1zM22 20h1v1h-1zM9 21h1v1h-1zM20 21h1v1h-1z"/>
</svg>
